<svg width="439" height="91" viewBox="0 0 439 91" fill="none" xmlns="http://www.w3.org/2000/svg">
<path d="M96.458 1.30174C111.286 1.24074 127.394 0.679729 142.158 1.95573C146.055 2.29273 151.593 4.62472 154.697 6.78672C159.65 10.2367 162.753 16.1017 163.547 22.0367C165.792 38.6847 157.207 51.4388 140.108 53.6007C148.592 65.7797 159.121 77.0467 167.438 88.9987C163.521 88.9147 159.737 88.8337 155.827 88.5947C153.255 85.9657 149.773 80.6997 147.363 77.6317C141.172 69.7507 135.227 61.4568 128.716 53.8338C120.824 53.9658 113.158 54.1127 105.268 53.9107C104.834 65.4467 105.461 77.1707 105.24 88.7897L96.429 89.0207C96.25 59.7817 96.26 30.5407 96.458 1.30174Z" fill="#17191E"/>
<path d="M114.653 10.0387C130.812 9.73173 160.052 5.78574 153.832 33.6297C152.754 38.4547 148.112 41.3357 143.983 43.5027C134.712 46.6077 115.838 45.4097 105.402 45.3127C105.264 33.6307 105.206 21.9477 105.226 10.2657L114.653 10.0387Z" fill="#FDFDFC"/>
<path d="M36.102 1.25271C39.597 1.16571 43.283 1.22271 46.795 1.22271L71.058 56.3127C75.816 67.0577 81.321 78.3747 85.702 89.1827L75.134 88.7817C67.955 72.4517 67.883 64.1447 48.957 57.1457C21.679 51.0217 18.218 70.5477 9.267 89.1637L0 89.3717C3.607 78.9667 9.237 67.1147 13.487 56.7217C20.997 38.3567 28.374 19.5007 36.102 1.25271Z" fill="#17191E"/>
<path d="M41.685 11.0927C43.267 12.5427 58.899 49.2087 61.41 54.7817C54.32 51.8217 51.922 50.9217 44.427 49.6297C35.748 48.6997 31.989 50.3637 23.974 53.1777C27.129 45.9527 30.13 38.6617 32.974 31.3097C35.149 25.7407 38.715 15.7857 41.685 11.0927Z" fill="#FDFDFC"/>
<path d="M214.079 0.433715C226.392 -1.01129 239.035 2.56071 248.297 10.8687C254.437 16.3757 257.219 22.8977 260.239 30.3627L251.199 30.6977C247.776 19.9557 243.138 14.6847 232.31 10.9567C213.128 4.57373 193.32 12.7437 187.203 33.1707C177.961 64.0327 205.122 93.2807 236.018 78.2997C245.07 73.9107 249.413 62.5077 252.054 53.2127C246.109 53.1487 240.163 53.1687 234.218 53.2717L220.639 53.2527C220.684 50.4327 220.91 47.2627 221.055 44.4157C233.43 44.1297 247.033 44.4827 259.558 44.4677C259.572 50.1527 260.66 86.7817 258.994 88.5857C256.924 88.9027 257.005 88.8677 254.928 88.4297C253.415 85.8677 253.9 72.8257 253.789 68.5287C248.196 80.1007 240.845 87.2517 227.901 89.7287C216.639 91.8517 204.995 89.4527 195.491 83.0507C163.518 61.2207 172.53 7.98371 214.079 0.433715Z" fill="#17191E"/>
<path d="M394.218 0.455723C413.434 -1.86028 433.83 4.34074 436.75 26.2207C433.81 26.1817 430.828 26.0807 427.885 26.0057C426.94 21.7737 425.314 17.8357 421.495 14.2967C411.609 4.19473 375.145 7.65273 377.287 26.0307C379.331 43.5607 419.405 37.8137 430.899 49.1337C440.44 58.5317 441.288 70.2027 433.382 80.0387C426.916 88.0817 415.949 89.9037 406.592 90.6257C388.831 91.4337 369.977 85.6687 366.869 65.4887C366.631 63.9467 366.591 63.5717 367.449 62.3857C379.804 58.2757 373.519 68.5287 382.841 76.6057C396.82 88.7157 440.332 81.3977 427.765 58.0127C418.165 48.2287 385.785 49.2747 376.82 41.1597C358.191 24.2947 372.02 3.62072 394.218 0.455723Z" fill="#17191E"/>
<path d="M342.952 1.30974C345.915 1.25074 349.031 1.29674 352.008 1.29374L351.997 10.0557C351.966 22.6317 353.495 54.7747 350.682 64.9767C349.13 70.6097 346.069 75.6048 342.032 79.8027C335.258 86.8447 325.883 90.5597 316.147 90.6517C305.984 90.7467 295.804 87.2107 288.534 79.9987C284.783 76.2767 281.807 71.9137 280.277 66.8167C276.775 55.1507 278.414 16.1067 278.457 1.34373C281.376 1.26673 284.461 1.30474 287.395 1.29774L287.325 36.5397C287.29 42.6127 286.831 55.8987 288.036 61.2887C289.037 65.8137 291.265 69.9747 294.475 73.3177C308.891 88.5077 337.358 83.0827 341.758 61.3877C343.219 54.1857 342.758 45.2357 342.798 37.8367L342.952 1.30974Z" fill="#17191E"/>
</svg>
