<svg width="294" height="203" viewBox="0 0 294 203" fill="none" xmlns="http://www.w3.org/2000/svg">
<path d="M0 101.314C13.6463 67.0096 50.2906 31.6715 82.8816 15.1645C115.981 -1.63846 154.398 -4.60844 189.686 6.90856C234.043 21.5906 272.366 59.7346 293.162 100.952C282.17 126.255 258.399 151.291 237.744 169.01L234.892 171.121C196.331 201.891 142.205 210.85 96.2776 193.041C55.3986 177.19 18.1456 140.812 0 101.314Z" fill="#11151C"/>
<path d="M234.892 171.121C233.416 169.366 231.908 168.436 233.125 166.336L234.396 166.272C236.339 167.212 236.381 167.282 237.744 169.01L234.892 171.121Z" fill="#17191E"/>
<path d="M52.8906 89.4176C117.13 12.3966 193.458 25.5226 249.083 101.35C210.254 157.322 144.998 188.364 84.9886 143.638C76.6796 137.445 69.6436 131.242 62.3236 123.942L59.5776 120.965C53.6096 114.562 49.1166 108.69 44.2556 101.503C46.3936 97.8986 48.6396 94.9006 51.0996 91.5316L52.8906 89.4176Z" fill="#FDFDFC"/>
<path d="M102.347 76.7786C105.577 71.0746 109.913 66.0736 115.102 62.0666C137.855 44.4436 169.99 49.5676 187.43 72.1856L189.773 75.8676C200.129 94.1846 198.973 111.796 188.465 129.742C182.767 136.825 177.185 142.359 168.891 146.411C156.671 152.244 142.653 153.06 129.838 148.686C117.258 144.312 106.926 135.129 101.105 123.149C94.4186 109.409 94.6766 96.9576 99.5346 82.8236C100.369 80.8296 101.413 78.7426 102.347 76.7786Z" fill="#11151C"/>
<path d="M102.347 76.7786C103.68 79.7706 105.038 91.0046 103.06 93.4086C101.41 90.0596 104.577 86.8675 99.5346 82.8235C100.369 80.8295 101.413 78.7426 102.347 76.7786Z" fill="#17191E"/>
<path d="M189.773 75.8676C188.666 76.4006 187.672 76.9656 186.598 77.5566C184.948 77.4136 185.644 77.7326 184.459 76.5256C184.375 74.2366 185.694 73.2955 187.43 72.1855L189.773 75.8676Z" fill="#17191E"/>
<path d="M184.677 125.325C186.689 126.674 187.823 127.294 188.465 129.742C186.098 129.649 186.446 130.032 184.887 128.86C184.541 127.098 184.546 127.118 184.677 125.325Z" fill="#17191E"/>
<path d="M130.928 120.575C120.624 110.502 118.045 96.1436 128.646 85.0776C133.101 80.4116 139.23 77.7136 145.679 77.5796C151.34 77.4756 155.734 79.2916 160.338 82.3906C162.092 80.7566 163.193 79.7866 164.715 77.8996C166.969 80.0456 169.31 82.3536 171.65 84.3756L166.862 89.3576C170.416 93.7256 171.458 98.6606 170.833 104.252C170.049 110.681 166.774 116.545 161.712 120.584C156.486 124.707 149.816 126.545 143.216 125.679C140.904 125.386 138.417 124.63 136.226 123.821C134.333 125.412 130.423 127.634 128.617 125.008C128.795 123.082 129.762 122.158 130.928 120.575Z" fill="#FDFDFC"/>
<path d="M130.928 120.575C132.733 121.789 134.248 122.903 136.226 123.821C134.333 125.412 130.423 127.634 128.617 125.008C128.795 123.082 129.762 122.158 130.928 120.575Z" fill="#17191E"/>
<path d="M159.776 85.1016C161.856 87.2266 163.675 88.7515 165.937 90.6725C156.791 99.0205 147.792 107.528 138.945 116.192C137.436 114.458 135.858 112.247 134.455 110.385C132.247 107.299 129.944 104.353 127.622 101.353C130.225 99.6475 131.666 98.6695 134.076 96.6595C136.69 99.3765 137.818 101.528 139.618 104.754C146.425 98.2925 153.144 91.7416 159.776 85.1016Z" fill="#17191E"/>
<path d="M175.477 83.0586C176.478 84.5446 176.282 107.749 175.769 110.9L174.916 110.237C173.851 108.28 174.805 86.4776 175.477 83.0586Z" fill="#17191E"/>
<path d="M123.803 142.83C125.45 142.675 128.489 142.085 129.621 143.36L128.783 144.542C126.994 145.151 126.083 145.349 124.346 144.722C123.693 143.57 123.823 144.206 123.803 142.83Z" fill="#17191E"/>
<path d="M176.088 133.962C177.462 134.124 177.851 134.332 179.141 134.797C180.325 136.421 180 135.509 179.924 137.698C178.401 137.525 178.724 137.521 177.237 136.921C175.919 135.203 176.301 136.149 176.088 133.962Z" fill="#17191E"/>
<path d="M127.496 78.7546C130 78.5186 130.077 78.1136 132.05 78.9896L132.63 80.7156C131.918 80.8796 130.947 80.9896 130.203 81.0986C128.611 80.6046 128.459 80.1186 127.496 78.7546Z" fill="#17191E"/>
<path d="M59.5776 120.965L62.3236 123.942C60.0106 124.969 58.1656 126.67 56.1276 124.83L56.3846 123.658C57.7606 121.942 57.6566 121.95 59.5776 120.965Z" fill="#17191E"/>
<path d="M51.0996 91.5316C49.4836 89.5566 48.3556 88.7926 49.0206 86.2386L49.9766 86.1176C51.5626 87.0496 51.8986 87.8755 52.8906 89.4175L51.0996 91.5316Z" fill="#17191E"/>
<path d="M264.715 133.513C267.545 134.598 268.238 136.118 268.529 138.938C266.767 138.296 266.345 138.251 264.946 136.937C264.212 135.264 264.346 135.25 264.715 133.513Z" fill="#17191E"/>
<path d="M248.713 150.442C249.172 150.117 249.771 150.066 250.279 150.308C250.787 150.55 251.125 151.048 251.162 151.61C251.198 152.171 250.929 152.709 250.457 153.015C249.747 153.477 248.798 153.285 248.323 152.584C247.848 151.883 248.021 150.931 248.713 150.442Z" fill="#17191E"/>
<path d="M14.3703 81.4366C16.0372 83.0056 15.7328 84.5726 15.6155 86.7136L14.291 85.8376C13.6199 84.4896 14.1125 83.0196 14.3703 81.4366Z" fill="#17191E"/>
</svg>
